<?xml version="1.0" standalone="no"?>
<!DOCTYPE svg PUBLIC "-//W3C//DTD SVG 20010904//EN"
 "http://www.w3.org/TR/2001/REC-SVG-20010904/DTD/svg10.dtd">
<svg version="1.0" xmlns="http://www.w3.org/2000/svg"
 width="260.000000pt" height="260.000000pt" viewBox="0 0 260.000000 260.000000"
 preserveAspectRatio="xMidYMid meet">
<metadata>
Created by potrace 1.11, written by Peter Selinger 2001-2013
</metadata>
<g transform="translate(0.000000,260.000000) scale(0.100000,-0.100000)"
fill="#000000" stroke="none">
<path d="M962 2508 c-280 -31 -514 -223 -610 -503 l-27 -80 0 -755 0 -755 150
-1 c83 -1 155 -2 161 -3 7 -1 11 -50 12 -149 0 -81 1 -153 1 -159 1 -10 171
-13 814 -13 l812 0 -1 1023 c-1 562 -2 1025 -3 1028 0 3 -67 5 -148 4 -82 0
-157 1 -168 3 -20 3 -21 10 -20 178 0 96 -2 178 -5 182 -7 9 -886 9 -968 0z
m809 -163 c4 -33 3 -1758 -1 -1764 -3 -4 -294 -7 -648 -7 l-642 1 0 646 c1
609 2 650 20 717 59 214 250 383 465 411 84 11 805 7 806 -4z m340 -364 c1 -3
2 -394 3 -868 l1 -863 -655 0 -655 0 2 72 c1 40 2 78 2 83 1 7 192 10 563 10
l563 0 1 785 c1 432 2 786 3 786 4 5 171 0 172 -5z"/>
<path d="M759 2111 c-42 -14 -52 -66 -19 -96 19 -17 47 -18 428 -17 224 0 415
1 424 1 26 1 48 29 48 60 0 56 3 56 -451 56 -229 0 -423 -1 -430 -4z"/>
<path d="M652 1732 c-33 -5 -55 -43 -43 -75 5 -14 16 -29 23 -33 7 -5 229 -9
493 -9 445 0 481 1 497 17 22 22 23 71 2 89 -13 11 -107 13 -483 14 -256 0
-476 -1 -489 -3z"/>
<path d="M650 1347 c-48 -12 -61 -61 -25 -96 14 -14 69 -16 496 -17 525 0 519
-1 519 57 0 63 10 62 -499 63 -254 1 -474 -2 -491 -7z"/>
<path d="M633 962 c-6 -4 -17 -20 -22 -35 -9 -24 -8 -31 13 -52 l25 -25 473 1
c520 0 518 0 518 59 0 62 17 60 -513 60 -265 0 -487 -4 -494 -8z"/>
</g>
</svg>
