<svg id="Layer_1" data-name="Layer 1" xmlns="http://www.w3.org/2000/svg" xmlns:xlink="http://www.w3.org/1999/xlink" viewBox="0 0 1547.33 1297.39"><defs><style>.cls-1{fill:none;}.cls-2{fill:#466eab;}.cls-3{fill:#9db6c9;}.cls-4{fill:#305d8a;}.cls-5{fill:#fff;}.cls-6{opacity:0.2;}.cls-7{fill:#efefef;}.cls-8{opacity:0.41;}.cls-9{opacity:0.33;}.cls-10{fill:#eae8e1;}.cls-11{clip-path:url(#clip-path);}.cls-12{fill:url(#linear-gradient);}.cls-13{clip-path:url(#clip-path-2);}.cls-14{fill:url(#linear-gradient-2);}.cls-15{isolation:isolate;}</style><clipPath id="clip-path" transform="translate(-3.19 -4.6)"><path class="cls-1" d="M588.21,690.4V674.76H550.75A30.75,30.75,0,0,0,520,705.51h0v58.27h13.82v13.85h68.77V690.4Zm-61.5,15.11a24.06,24.06,0,0,1,24-24H581.5v75.6H526.71Zm69.17,65.41H540.52v-7.14H588.2V697.1h7.67Z"/></clipPath><linearGradient id="linear-gradient" x1="313.77" y1="1384.51" x2="316.77" y2="1382.01" gradientTransform="matrix(33.83, 0, 0, -40.59, -10106.22, 56870.37)" gradientUnits="userSpaceOnUse"><stop offset="0" stop-color="#5ebb58"/><stop offset="0.99" stop-color="#4761ac"/></linearGradient><clipPath id="clip-path-2" transform="translate(-3.19 -4.6)"><path class="cls-1" d="M575.9,694.18a2.52,2.52,0,0,1-2.52,2.52h-34a2.52,2.52,0,0,1,0-5h34A2.51,2.51,0,0,1,575.9,694.18Zm-2.52,13.67H534.53a2.52,2.52,0,0,0,0,5h38.85a2.52,2.52,0,0,0,0-5Zm0,16.19H534.53a2.52,2.52,0,0,0,0,5h38.85a2.52,2.52,0,0,0,0-5Zm0,16.18H534.53a2.52,2.52,0,0,0,0,5h38.85a2.52,2.52,0,0,0,0-5Z"/></clipPath><linearGradient id="linear-gradient-2" x1="313.77" y1="1384.51" x2="316.77" y2="1382.01" gradientTransform="matrix(33.83, 0, 0, -40.59, -10106.23, 56870.42)" xlink:href="#linear-gradient"/></defs><path class="cls-2" d="M1373.49,1157.83H1233.62a72.08,72.08,0,1,1,0-144.15h48.08a72.08,72.08,0,1,0,0-144.16H993.22a72.08,72.08,0,1,1,0-144.15H1478.4a72.08,72.08,0,1,0,0-144.16H1133.09a72.08,72.08,0,1,1,0-144.15h131.13a72.08,72.08,0,1,0,0-144.15H975.74a72.08,72.08,0,1,1,0-144.16h43.71a72.08,72.08,0,1,0,0-144.15H582.35a72.08,72.08,0,1,0,0,144.15h26.23a72.08,72.08,0,1,1,0,144.16H560.49a72.08,72.08,0,1,0,0,144.15h-8.74a72.08,72.08,0,1,1,0,144.15H75.31a72.08,72.08,0,1,0,0,144.16H197.69a72.08,72.08,0,1,1,0,144.15H180.21a72.08,72.08,0,1,0,0,144.16H508a72.08,72.08,0,1,1,0,144.15H341.93a72.08,72.08,0,1,0,0,144.15h1031.5a72.08,72.08,0,1,0,0-144.15Z" transform="translate(-3.19 -4.6)"/><polygon class="cls-3" points="212.16 574.92 84.94 729.13 96.94 738.53 223.81 585.52 212.16 574.92"/><path class="cls-4" d="M100.12,747.13a4,4,0,0,1-2.45-.84l-12-9.35a4,4,0,0,1-1.53-2.72,4.06,4.06,0,0,1,.9-3L212.27,577a4,4,0,0,1,5.78-.41l11.64,10.6a4,4,0,0,1,.38,5.52l-126.86,153a4,4,0,0,1-3.08,1.44Zm-6.29-14,5.69,4.43,122-147-5.7-5.19L93.83,733.16Z" transform="translate(-3.19 -4.6)"/><polygon class="cls-3" points="87.69 782.53 163.01 929.03 179.03 929.03 100.45 775.53 87.69 782.53"/><path class="cls-4" d="M182.22,937.63h-16a4,4,0,0,1-3.57-2.17L87.31,789A4,4,0,0,1,89,783.62l12.77-7a4,4,0,0,1,3.1-.32,4.05,4.05,0,0,1,2.39,2l78.58,153.5a4,4,0,0,1-3.57,5.83Zm-13.57-8h7L102,785.62l-5.74,3.15,72.43,140.86Z" transform="translate(-3.19 -4.6)"/><path class="cls-3" d="M216.77,460.85a22,22,0,1,1-31.15,0A22,22,0,0,1,216.77,460.85Z" transform="translate(-3.19 -4.6)"/><path class="cls-4" d="M201.19,502.45a26,26,0,1,1,18.41-7.62A25.86,25.86,0,0,1,201.19,502.45Zm0-44a18,18,0,1,0,12.75,5.27A17.92,17.92,0,0,0,201.19,458.41Z" transform="translate(-3.19 -4.6)"/><path class="cls-5" d="M339,559.49a38.7,38.7,0,1,1-54.73,0A38.71,38.71,0,0,1,339,559.49Z" transform="translate(-3.19 -4.6)"/><path class="cls-4" d="M311.62,629.55a42.7,42.7,0,1,1,30.2-12.5A42.43,42.43,0,0,1,311.62,629.55Zm0-77.39a34.69,34.69,0,1,0,24.54,10.15A34.47,34.47,0,0,0,311.62,552.16Z" transform="translate(-3.19 -4.6)"/><rect class="cls-3" x="166.82" y="468.04" width="80.09" height="28.03" transform="translate(-283.47 282.87) rotate(-45)"/><path class="cls-4" d="M188.45,524.32a4,4,0,0,1-2.83-1.17l-19.81-19.82a4,4,0,0,1,0-5.66L222.44,441a4,4,0,0,1,5.66,0l19.82,19.82a4,4,0,0,1,0,5.66l-56.63,56.63a4,4,0,0,1-2.84,1.17ZM174.3,500.5l14.15,14.15,51-51-14.15-14.16Z" transform="translate(-3.19 -4.6)"/><polygon class="cls-3" points="372.14 544.03 270.2 645.96 165.44 518.54 244.72 439.26 372.14 544.03"/><path class="cls-4" d="M273.39,653.33h-.19c-1.13,0-2.18,0-2.9-.84L165.54,525.38a3.81,3.81,0,0,1,.26-5.22L245.08,441a4,4,0,0,1,5.38-.22L377.88,545.51a4,4,0,0,1,.29,5.94L276.24,652.77c-.75.76-1.78.56-2.84.56ZM174,523.41l99.65,121.2,95.7-95.69-121.2-99.65L174,523.41Z" transform="translate(-3.19 -4.6)"/><g class="cls-6"><polygon class="cls-3" points="318.35 592.16 366.01 544.5 245 444.67 207.91 481.73 318.35 592.16"/></g><g class="cls-6"><rect class="cls-3" x="197.33" y="461.1" width="36.04" height="8.01" transform="translate(-268.99 283.9) rotate(-45)"/></g><g class="cls-6"><path class="cls-3" d="M204.5,459s-11.57-3.14-19.59,8.93c0,0,6.14-1.14,9.21,1.45Z" transform="translate(-3.19 -4.6)"/></g><g class="cls-6"><polyline class="cls-3" points="303.82 617.53 309.86 617.65 341 586.5 343.82 583.67 343.58 578.25 304.19 617.65"/></g><path class="cls-3" d="M119,758.63a28.46,28.46,0,1,1-28.46-28.47A28.46,28.46,0,0,1,119,758.63Z" transform="translate(-3.19 -4.6)"/><path class="cls-4" d="M90.55,791.13A32.47,32.47,0,1,1,123,758.67,32.49,32.49,0,0,1,90.55,791.13Zm0-56.93A24.46,24.46,0,1,0,115,758.67,24.48,24.48,0,0,0,90.55,734.2Z" transform="translate(-3.19 -4.6)"/><g class="cls-6"><path class="cls-3" d="M90.12,734.23v48.92c12,0,24.46-10.95,24.46-24.46s-12.44-24.46-24.46-24.46Z" transform="translate(-3.19 -4.6)"/></g><path class="cls-3" d="M103.64,758.63a13.08,13.08,0,1,1-13.08-13.09,13.08,13.08,0,0,1,13.08,13.09Z" transform="translate(-3.19 -4.6)"/><path class="cls-4" d="M90.55,775.73a17.09,17.09,0,1,1,17.09-17.08A17.1,17.1,0,0,1,90.55,775.73Zm0-26.17a9.08,9.08,0,1,0,9.08,9.09A9.1,9.1,0,0,0,90.55,749.56Z" transform="translate(-3.19 -4.6)"/><path class="cls-3" d="M260.79,1017.73a78.82,78.82,0,1,0-154.62,0Z" transform="translate(-3.19 -4.6)"/><path class="cls-4" d="M260.79,1021.73H106.17a4,4,0,0,1-3.93-3.23,82.83,82.83,0,1,1,162.49,0,4,4,0,0,1-3.93,3.23Zm-151.26-8H257.42a74.81,74.81,0,1,0-148.76-11.28,75.59,75.59,0,0,0,.87,11.28Z" transform="translate(-3.19 -4.6)"/><g class="cls-6"><path class="cls-3" d="M183.48,923.63a78.44,78.44,0,0,0-36.78,9.13,78.37,78.37,0,0,1,91.58,77.7c0,2.45-.14,4.87-.37,7.27h22.88a78.75,78.75,0,0,0-77.31-94.1Z" transform="translate(-3.19 -4.6)"/></g><g class="cls-6"><polygon class="cls-3" points="214.41 584 99.17 723.83 102.63 725.63 216.91 587.34 214.41 584"/></g><g class="cls-6"><polygon class="cls-3" points="100.28 783.83 97.11 785.23 164.85 917.03 168.53 917.03 100.28 783.83"/></g><path class="cls-5" d="M1175.3,963a22.7,22.7,0,0,1-22.7,22.7H417.17a22.7,22.7,0,0,1-22.7-22.7V467.85a22.7,22.7,0,0,1,22.7-22.7H1152.6a22.7,22.7,0,0,1,22.7,22.7Z" transform="translate(-3.19 -4.6)"/><path class="cls-4" d="M1152.6,989.73H417.17a26.73,26.73,0,0,1-26.7-26.7V467.85a26.74,26.74,0,0,1,26.7-26.71H1152.6a26.74,26.74,0,0,1,26.71,26.71V963a26.73,26.73,0,0,1-26.7,26.7ZM417.17,449.15a18.72,18.72,0,0,0-18.7,18.7V963a18.72,18.72,0,0,0,18.7,18.69H1152.6A18.71,18.71,0,0,0,1171.3,963V467.85a18.72,18.72,0,0,0-18.7-18.7Z" transform="translate(-3.19 -4.6)"/><g class="cls-6"><path class="cls-3" d="M1148.6,445.11h-7.32a18,18,0,0,1,18,18V953.65h12V467.81a22.7,22.7,0,0,0-22.71-22.7Z" transform="translate(-3.19 -4.6)"/></g><g class="cls-6"><path class="cls-3" d="M1127.2,842.83a22.7,22.7,0,0,1-22.7,22.7H465.18a22.7,22.7,0,0,1-22.7-22.7v-343a22.7,22.7,0,0,1,22.7-22.7H1104.5a22.7,22.7,0,0,1,22.7,22.7Z" transform="translate(-3.19 -4.6)"/></g><path class="cls-7" d="M1127.2,954.93a22.7,22.7,0,0,1-22.7,22.7H465.18a22.7,22.7,0,0,1-22.7-22.7V511.81a22.7,22.7,0,0,1,22.7-22.7H1104.5a22.7,22.7,0,0,1,22.7,22.7Z" transform="translate(-3.19 -4.6)"/><path class="cls-4" d="M1104.5,981.73H465.18a26.73,26.73,0,0,1-26.7-26.7V511.91a26.74,26.74,0,0,1,26.7-26.71H1104.5a26.74,26.74,0,0,1,26.71,26.71V955a26.74,26.74,0,0,1-26.71,26.7ZM465.18,493.21a18.71,18.71,0,0,0-18.69,18.7V955a18.71,18.71,0,0,0,18.69,18.69H1104.5A18.71,18.71,0,0,0,1123.2,955V511.91a18.72,18.72,0,0,0-18.7-18.7Z" transform="translate(-3.19 -4.6)"/><g class="cls-8"><path class="cls-5" d="M1103.5,493.16H671.23l452,316.34V515.86c0-17-8.59-22.7-19.7-22.7Z" transform="translate(-3.19 -4.6)"/></g><path class="cls-5" d="M1310.2,957.63H263.5c-12.53,0-18.28,10.69-14.69,22.7,1.2,4,3.64,13.3,4.68,17.35a26.27,26.27,0,0,0,26,20h1014.7c12.54,0,22.94-7.88,26-20,1-4,3.48-13.34,4.68-17.35,3.59-12-2.16-22.7-14.7-22.7Z" transform="translate(-3.19 -4.6)"/><path class="cls-4" d="M1294.2,1021.73H279.5a30.38,30.38,0,0,1-29.91-23c-1-3.89-3.45-13.23-4.64-17.19-2.29-7.66-1.33-15.12,2.64-20.45,3.56-4.77,9.2-7.4,15.9-7.4h1046.7c6.69,0,12.33,2.63,15.89,7.4,4,5.33,4.93,12.79,2.64,20.45-1.19,4-3.64,13.3-4.64,17.19a30.37,30.37,0,0,1-29.91,23ZM263.5,961.67c-4.16,0-7.43,1.44-9.47,4.17-2.44,3.28-2.94,8.16-1.38,13.37,1.23,4.13,3.68,13.44,4.72,17.51,2.64,10.33,11.33,17,22.15,17h1014.7c10.82,0,19.52-6.67,22.16-17,1-4.07,3.49-13.38,4.72-17.5,1.56-5.22,1.06-10.1-1.39-13.38-2-2.73-5.31-4.17-9.47-4.17H263.5Z" transform="translate(-3.19 -4.6)"/><g class="cls-6"><path class="cls-3" d="M853.5,957.63H674.78V971a22.7,22.7,0,0,0,22.71,22.7H872.32A22.7,22.7,0,0,0,895,971V957.63Z" transform="translate(-3.19 -4.6)"/></g><path class="cls-3" d="M853.5,957.63H679a22.71,22.71,0,0,0,22.54,20H868.32a22.7,22.7,0,0,0,22.53-20H853.5Z" transform="translate(-3.19 -4.6)"/><path class="cls-4" d="M868.3,981.73H701.48A26.69,26.69,0,0,1,675,958.17a4,4,0,0,1,4-4.47H890.83a4,4,0,0,1,4,4.47,26.69,26.69,0,0,1-26.51,23.56ZM684,961.71a18.7,18.7,0,0,0,17.46,12H868.3a18.7,18.7,0,0,0,17.46-12H684Z" transform="translate(-3.19 -4.6)"/><g class="cls-6"><path class="cls-3" d="M257,1001.73a26.37,26.37,0,0,0,22.56,12h1014.7a26.34,26.34,0,0,0,22.56-12H257Z" transform="translate(-3.19 -4.6)"/></g><g class="cls-9"><path class="cls-3" d="M1104.5,489.15H465.18a22.7,22.7,0,0,0-22.7,22.7v12a22.71,22.71,0,0,1,22.7-22.7H1104.5a22.71,22.71,0,0,1,22.71,22.7v-12A22.7,22.7,0,0,0,1104.5,489.15Z" transform="translate(-3.19 -4.6)"/></g><g class="cls-6"><rect class="cls-3" x="391.26" y="941.03" width="764.82" height="8.01"/></g><circle class="cls-4" cx="783.72" cy="461.03" r="4.51"/><g class="cls-6"><path class="cls-3" d="M1143.2,445.31a16.68,16.68,0,0,1,2-.2h-2Z" transform="translate(-3.19 -4.6)"/></g><path class="cls-4" d="M1463.6,1021.73H154.2a4,4,0,0,1,0-8H1463.6a4,4,0,1,1,0,8Z" transform="translate(-3.19 -4.6)"/><path class="cls-4" d="M150.22,1021.73a4,4,0,0,1,0-8h0a4,4,0,1,1,0,8Zm-32.07,0h-32a4,4,0,1,1,0-8h32a4,4,0,1,1,0,8Zm-64.07,0h-32a4,4,0,1,1,0-8h32a4,4,0,1,1,0,8Z" transform="translate(-3.19 -4.6)"/><line class="cls-1" x1="1348.42" y1="584.37" x2="1370.32" y2="594.67"/><line class="cls-1" x1="1336.02" y1="552.84" x2="1334.82" y2="538.61"/><line class="cls-1" x1="1322.82" y1="567.55" x2="1304.22" y2="556.85"/><line class="cls-1" x1="1361.52" y1="567.55" x2="1370.32" y2="566.2"/><line class="cls-1" x1="1370.32" y1="722.83" x2="1383.82" y2="707.33"/><line class="cls-1" x1="1432.12" y1="712.13" x2="1434.42" y2="718.83"/><line class="cls-1" x1="1412.62" y1="670.23" x2="1407.02" y2="650.03"/><line class="cls-1" x1="1436.42" y1="652.73" x2="1440.42" y2="644.73"/><line class="cls-1" x1="1452.42" y1="670.23" x2="1474.42" y2="664.73"/><line class="cls-1" x1="1460.42" y1="680.93" x2="1467.72" y2="681.53"/><line class="cls-1" x1="1272.22" y1="576.65" x2="1276.22" y2="556.63"/><line class="cls-1" x1="1255.22" y1="574.92" x2="1245.52" y2="567.55"/><line class="cls-1" x1="1255.22" y1="658.73" x2="1231.02" y2="664.73"/><line class="cls-1" x1="1272.22" y1="629.02" x2="1255.22" y2="623.37"/><line class="cls-1" x1="1287.72" y1="601.34" x2="1290.92" y2="584.37"/><line class="cls-1" x1="1319.62" y1="604.01" x2="1332.22" y2="584.37"/><line class="cls-1" x1="1329.62" y1="623.37" x2="1352.32" y2="626.19"/><line class="cls-1" x1="1233.62" y1="640.41" x2="1212.12" y2="634.71"/><line class="cls-1" x1="1222.82" y1="613.36" x2="1231.02" y2="612.09"/><line class="cls-1" x1="1300.22" y1="637.56" x2="1304.22" y2="626.19"/><line class="cls-1" x1="1248.22" y1="594.67" x2="1237.62" y2="584.37"/><line class="cls-1" x1="1274.22" y1="650.03" x2="1280.92" y2="652.73"/><line class="cls-1" x1="1237.62" y1="748.13" x2="1222.82" y2="728.83"/><line class="cls-1" x1="1216.12" y1="744.73" x2="1209.12" y2="738.53"/><line class="cls-1" x1="1222.82" y1="763.83" x2="1204.82" y2="770.83"/><line class="cls-1" x1="1222.82" y1="779.73" x2="1216.12" y2="788.23"/><line class="cls-1" x1="1373.02" y1="670.23" x2="1381.02" y2="646.73"/><line class="cls-1" x1="1358.12" y1="650.03" x2="1359.42" y2="640.41"/><line class="cls-1" x1="1287.72" y1="681.53" x2="1267.52" y2="667.43"/><line class="cls-1" x1="1320.22" y1="648.73" x2="1324.22" y2="636.72"/><line class="cls-1" x1="1313.52" y1="667.43" x2="1319.62" y2="674.53"/><line class="cls-1" x1="1337.42" y1="664.73" x2="1334.82" y2="685.53"/><line class="cls-1" x1="1398.32" y1="693.43" x2="1414.32" y2="685.53"/><line class="cls-1" x1="1408.32" y1="704.83" x2="1420.32" y2="704.83"/><line class="cls-1" x1="1242.22" y1="722.83" x2="1258.22" y2="735.53"/><line class="cls-1" x1="1255.22" y1="711.83" x2="1249.52" y2="710.83"/><line class="cls-1" x1="1274.22" y1="698.93" x2="1289.32" y2="710.83"/><line class="cls-1" x1="1304.22" y1="702.13" x2="1310.42" y2="712.13"/><line class="cls-1" x1="1377.12" y1="760.83" x2="1388.72" y2="748.13"/><line class="cls-1" x1="1398.32" y1="767.33" x2="1406.32" y2="764.83"/><line class="cls-1" x1="1409.82" y1="741.63" x2="1433.22" y2="738.53"/><line class="cls-1" x1="1424.92" y1="760.83" x2="1430.42" y2="758.53"/><line class="cls-1" x1="1263.72" y1="792.23" x2="1248.22" y2="804.93"/><line class="cls-1" x1="1272.22" y1="772.83" x2="1287.72" y2="775.53"/><line class="cls-1" x1="1281.72" y1="802.23" x2="1296.92" y2="792.23"/><line class="cls-1" x1="1325.92" y1="782.53" x2="1319.62" y2="798.53"/><line class="cls-1" x1="1340.92" y1="797.23" x2="1344.42" y2="804.93"/><line class="cls-1" x1="1302.22" y1="744.73" x2="1281.72" y2="738.53"/><line class="cls-1" x1="1352.32" y1="766.13" x2="1355.62" y2="758.53"/><line class="cls-1" x1="1377.02" y1="790.53" x2="1389.62" y2="793.23"/><line class="cls-1" x1="1220.12" y1="868.93" x2="1456.42" y2="868.93"/><path class="cls-10" d="M405.12,934.63a55.06,55.06,0,0,0-54.72-55v-7.35a22.7,22.7,0,0,0-22.71-22.7H237a22.7,22.7,0,0,0-22.71,22.7V995a22.71,22.71,0,0,0,22.71,22.7h90.73A22.71,22.71,0,0,0,350.4,995v-5.33a55.06,55.06,0,0,0,54.72-55Zm-54.72,31V903.6a31,31,0,0,1,0,62.06Z" transform="translate(-3.19 -4.6)"/><path class="cls-4" d="M327.69,1021.73H237A26.74,26.74,0,0,1,210.25,995V872.25A26.74,26.74,0,0,1,237,845.54h90.73a26.74,26.74,0,0,1,26.71,26.71v3.5a59.06,59.06,0,0,1,0,117.8V995a26.74,26.74,0,0,1-26.71,26.71ZM237,853.55a18.72,18.72,0,0,0-18.7,18.7V995a18.71,18.71,0,0,0,18.7,18.69h90.73A18.71,18.71,0,0,0,346.39,995V989.7a4,4,0,0,1,4-4,51.05,51.05,0,0,0,0-102.1,4,4,0,0,1-4-4v-7.35a18.72,18.72,0,0,0-18.7-18.7ZM350.4,969.68a4,4,0,0,1-4-4v-62a4,4,0,0,1,1.19-2.85,3.84,3.84,0,0,1,2.86-1.16,35,35,0,0,1,0,70.06Zm4-61.7v53.34a27,27,0,0,0,0-53.34Z" transform="translate(-3.19 -4.6)"/><g class="cls-6"><path class="cls-3" d="M350.4,879.63v-7.35a22.7,22.7,0,0,0-22.7-22.7H298.35v168.18H327.7a22.7,22.7,0,0,0,22.7-22.7v-5.33a55.05,55.05,0,0,0,0-110.1Zm0,86.08V903.66a31,31,0,0,1,0,62.05Z" transform="translate(-3.19 -4.6)"/></g><line class="cls-1" x1="235.1" y1="860.93" x2="323.19" y2="860.93"/><path class="cls-4" d="M326.37,869.53H238.28a4,4,0,0,1,0-8h88.09a4,4,0,1,1,0,8Z" transform="translate(-3.19 -4.6)"/><g id="Group_61" data-name="Group 61"><g id="Group_51" data-name="Group 51"><g class="cls-11"><g id="Group_50" data-name="Group 50"><rect id="Rectangle_77" data-name="Rectangle 77" class="cls-12" x="512.18" y="665.68" width="92.26" height="110.71"/></g></g></g><g id="Group_53" data-name="Group 53"><g class="cls-13"><g id="Group_52" data-name="Group 52"><rect id="Rectangle_78" data-name="Rectangle 78" class="cls-14" x="512.16" y="665.83" width="92.26" height="110.71"/></g></g></g><g id="notespace.io" class="cls-15"><g class="cls-15"><path d="M672.84,747.63h-6.11V725.85q0-12.15-8.88-12.15a9.62,9.62,0,0,0-7.59,3.45,12.78,12.78,0,0,0-3,8.7v21.78h-6.11V709.45h6.11v6.33h.15a13.78,13.78,0,0,1,12.53-7.23q6.25,0,9.58,4.05t3.32,11.69Z" transform="translate(-3.19 -4.6)"/><path d="M700.32,748.52q-8.46,0-13.52-5.35t-5-14.19q0-9.62,5.26-15t14.21-5.41q8.53,0,13.33,5.26t4.79,14.58q0,9.14-5.17,14.63T700.32,748.52Zm.45-34.82a11.59,11.59,0,0,0-9.32,4q-3.44,4-3.43,11,0,6.79,3.46,10.7a11.81,11.81,0,0,0,9.29,3.92q5.93,0,9.12-3.84t3.18-10.93q0-7.15-3.18-11T700.77,713.7Z" transform="translate(-3.19 -4.6)"/><path d="M746.82,747.25a11.73,11.73,0,0,1-5.71,1.2q-10,0-10-11.19V714.67h-6.56v-5.22h6.56v-9.33l6.12-2v11.3h9.62v5.22H737.2v21.51q0,3.84,1.3,5.48c.87,1.1,2.32,1.64,4.33,1.64a6.46,6.46,0,0,0,4-1.26Z" transform="translate(-3.19 -4.6)"/><path d="M785.08,730.07h-27q.15,6.38,3.43,9.84t9,3.47a18.8,18.8,0,0,0,11.86-4.25v5.74q-5,3.64-13.31,3.65-8.1,0-12.72-5.2t-4.62-14.63q0-8.91,5.05-14.53a16.21,16.21,0,0,1,12.55-5.61q7.49,0,11.59,4.85t4.11,13.46Zm-6.27-5.19c0-3.53-.87-6.27-2.55-8.24a8.71,8.71,0,0,0-7-2.94,9.88,9.88,0,0,0-7.35,3.09,14,14,0,0,0-3.73,8.09Z" transform="translate(-3.19 -4.6)"/><path d="M792,746.25v-6.56a18.1,18.1,0,0,0,11,3.69q8.06,0,8.06-5.37a4.65,4.65,0,0,0-.69-2.59,7,7,0,0,0-1.87-1.89,14.83,14.83,0,0,0-2.76-1.47c-1-.43-2.19-.89-3.41-1.36a44.62,44.62,0,0,1-4.46-2,13.87,13.87,0,0,1-3.2-2.31,8.57,8.57,0,0,1-1.94-2.93,10.3,10.3,0,0,1-.65-3.84,9.15,9.15,0,0,1,1.23-4.76,10.82,10.82,0,0,1,3.28-3.46,15,15,0,0,1,4.68-2.11,20.83,20.83,0,0,1,5.42-.71,21.81,21.81,0,0,1,8.88,1.72v6.19a17.3,17.3,0,0,0-9.7-2.76,11.36,11.36,0,0,0-3.09.39,7.63,7.63,0,0,0-2.37,1.1,5.11,5.11,0,0,0-1.53,1.69,4.5,4.5,0,0,0-.54,2.19,5.21,5.21,0,0,0,.54,2.49,5.36,5.36,0,0,0,1.59,1.79,11.57,11.57,0,0,0,2.53,1.42q1.5.63,3.39,1.38a46.34,46.34,0,0,1,4.55,2,15.11,15.11,0,0,1,3.43,2.31,8.88,8.88,0,0,1,2.19,3,9.57,9.57,0,0,1,.76,4,9.42,9.42,0,0,1-1.25,4.92,10.54,10.54,0,0,1-3.34,3.47,15.26,15.26,0,0,1-4.81,2.05,23.55,23.55,0,0,1-5.7.67A21.76,21.76,0,0,1,792,746.25Z" transform="translate(-3.19 -4.6)"/><path d="M833,742.11h-.15v23.08h-6.11V709.45h6.11v6.71H833a14.47,14.47,0,0,1,13.2-7.61q7.38,0,11.52,5.13t4.14,13.74q0,9.58-4.66,15.34t-12.75,5.76A12.78,12.78,0,0,1,833,742.11Zm-.15-15.4V732a11.37,11.37,0,0,0,3.08,8,11,11,0,0,0,16.52-1q3.15-4.26,3.15-11.82,0-6.37-3-10a9.74,9.74,0,0,0-8-3.61,10.84,10.84,0,0,0-8.58,3.71A13.62,13.62,0,0,0,832.84,726.71Z" transform="translate(-3.19 -4.6)"/><path d="M898,747.63h-6.12v-6h-.15a12.78,12.78,0,0,1-11.74,6.86c-3.81,0-6.78-1-8.94-3a10.44,10.44,0,0,1-3.22-8q0-10.71,12.6-12.46l11.45-1.6q0-9.73-7.87-9.73a18.78,18.78,0,0,0-12.45,4.69v-6.26a23.62,23.62,0,0,1,13-3.58q13.47,0,13.47,14.24Zm-6.12-19.32-9.21,1.27a14.93,14.93,0,0,0-6.41,2.11c-1.45,1-2.17,2.79-2.17,5.35a5.84,5.84,0,0,0,2,4.57,7.71,7.71,0,0,0,5.31,1.77,9.86,9.86,0,0,0,7.52-3.19,11.43,11.43,0,0,0,3-8.07Z" transform="translate(-3.19 -4.6)"/><path d="M935.5,745.88a20,20,0,0,1-10.45,2.64q-8.16,0-13.18-5.31t-5-13.78q0-9.43,5.4-15.16t14.44-5.72a20,20,0,0,1,8.87,1.87v6.26a15.54,15.54,0,0,0-9.1-3,12.28,12.28,0,0,0-9.6,4.19q-3.75,4.2-3.75,11t3.53,10.59a12.16,12.16,0,0,0,9.45,3.88,15.37,15.37,0,0,0,9.4-3.32Z" transform="translate(-3.19 -4.6)"/><path d="M975.43,730.07h-27q.15,6.38,3.43,9.84t9,3.47a18.78,18.78,0,0,0,11.86-4.25v5.74q-5,3.64-13.31,3.65-8.09,0-12.72-5.2t-4.62-14.63q0-8.91,5-14.53a16.21,16.21,0,0,1,12.55-5.61q7.5,0,11.6,4.85t4.1,13.46Zm-6.26-5.19c0-3.53-.88-6.27-2.56-8.24a8.71,8.71,0,0,0-7-2.94,9.91,9.91,0,0,0-7.35,3.09,14.11,14.11,0,0,0-3.73,8.09Z" transform="translate(-3.19 -4.6)"/><path d="M986.8,748.45a3.94,3.94,0,0,1-2.92-1.23,4,4,0,0,1-1.22-3,4.1,4.1,0,0,1,1.22-3,3.92,3.92,0,0,1,2.92-1.25,4.23,4.23,0,0,1,4.22,4.21,4,4,0,0,1-1.23,3A4.09,4.09,0,0,1,986.8,748.45Z" transform="translate(-3.19 -4.6)"/><path d="M1004.37,699.75a3.86,3.86,0,0,1-2.8-1.12,3.77,3.77,0,0,1-1.16-2.83,3.93,3.93,0,0,1,4-4,4,4,0,0,1,2.85,1.14,4,4,0,0,1,0,5.64A3.9,3.9,0,0,1,1004.37,699.75Zm3,47.88h-6.12V709.45h6.12Z" transform="translate(-3.19 -4.6)"/><path d="M1035.69,748.52q-8.48,0-13.52-5.35t-5-14.19q0-9.62,5.25-15t14.21-5.41q8.54,0,13.33,5.26t4.79,14.58q0,9.14-5.16,14.63T1035.69,748.52Zm.44-34.82a11.62,11.62,0,0,0-9.32,4q-3.43,4-3.43,11,0,6.79,3.47,10.7a11.79,11.79,0,0,0,9.28,3.92q5.94,0,9.12-3.84t3.19-10.93q0-7.15-3.19-11T1036.13,713.7Z" transform="translate(-3.19 -4.6)"/></g></g><line id="Line_3" data-name="Line 3" class="cls-1" x1="468.2" y1="721.31" x2="1119.03" y2="721.31"/></g></svg>