<svg xmlns="http://www.w3.org/2000/svg" xmlns:xlink="http://www.w3.org/1999/xlink" viewBox="0 0 335.14 66.09"><defs><style>.cls-1{fill:none;}.cls-2{clip-path:url(#clip-path);}.cls-3{fill:url(#linear-gradient);}.cls-4{clip-path:url(#clip-path-2);}.cls-5{fill:url(#linear-gradient-2);}</style><clipPath id="clip-path" transform="translate(2.77 2.67)"><path class="cls-1" d="M40.67,9.33V0H18.33A18.33,18.33,0,0,0,0,18.33V53.07H8.24v8.26h41v-52ZM4,18.33A14.35,14.35,0,0,1,18.33,4H36.67V49.07H4Zm41.24,39h-33V53.07H40.67V13.33h4.57Z"/></clipPath><linearGradient id="linear-gradient" x1="-2.74" y1="2.75" x2="57.76" y2="63.25" gradientUnits="userSpaceOnUse"><stop offset="0" stop-color="#5ebb58"/><stop offset="0.99" stop-color="#4761ac"/></linearGradient><clipPath id="clip-path-2" transform="translate(2.77 2.67)"><path class="cls-1" d="M33.32,11.58a1.5,1.5,0,0,1-1.5,1.5H11.56a1.5,1.5,0,0,1,0-3H31.82A1.5,1.5,0,0,1,33.32,11.58Zm-1.5,8.15H8.67a1.5,1.5,0,1,0,0,3H31.82a1.5,1.5,0,0,0,0-3Zm0,9.65H8.67a1.5,1.5,0,1,0,0,3H31.82a1.5,1.5,0,0,0,0-3Zm0,9.65H8.67a1.5,1.5,0,0,0,0,3H31.82a1.5,1.5,0,0,0,0-3Z"/></clipPath><linearGradient id="linear-gradient-2" x1="-2.75" y1="2.84" x2="57.75" y2="63.34" xlink:href="#linear-gradient"/></defs><g id="Layer_2" data-name="Layer 2"><g id="Layer_3" data-name="Layer 3"><g class="cls-2"><rect class="cls-3" x="0.01" width="55" height="66"/></g><g class="cls-4"><rect class="cls-5" y="0.09" width="55" height="66"/></g><path d="M92.35,46.66H88.5V33q0-7.65-5.57-7.64a6,6,0,0,0-4.77,2.16A8,8,0,0,0,76.27,33V46.66H72.43v-24h3.84v4h.09a8.68,8.68,0,0,1,7.88-4.55,7.36,7.36,0,0,1,6,2.54q2.08,2.55,2.09,7.35Z" transform="translate(2.77 2.67)"/><path d="M109.62,47.23a11.12,11.12,0,0,1-8.5-3.37A12.47,12.47,0,0,1,98,35c0-4,1.1-7.18,3.3-9.45a11.88,11.88,0,0,1,8.93-3.4q5.37,0,8.38,3.31t3,9.16a12.92,12.92,0,0,1-3.24,9.2A11.41,11.41,0,0,1,109.62,47.23Zm.28-21.89A7.31,7.31,0,0,0,104,27.86a10.31,10.31,0,0,0-2.15,6.94,9.75,9.75,0,0,0,2.18,6.73A7.39,7.39,0,0,0,109.9,44a7,7,0,0,0,5.73-2.41q2-2.41,2-6.87t-2-6.94A7,7,0,0,0,109.9,25.34Z" transform="translate(2.77 2.67)"/><path d="M138.85,46.43a7.42,7.42,0,0,1-3.59.75q-6.3,0-6.3-7V26h-4.13V22.66H129V16.8l3.84-1.24v7.1h6V26h-6V39.47a5.55,5.55,0,0,0,.82,3.44,3.27,3.27,0,0,0,2.72,1,4.07,4.07,0,0,0,2.51-.8Z" transform="translate(2.77 2.67)"/><path d="M162.89,35.63H146a9,9,0,0,0,2.15,6.18A7.43,7.43,0,0,0,153.78,44a11.8,11.8,0,0,0,7.45-2.67v3.61a14,14,0,0,1-8.37,2.3,10.14,10.14,0,0,1-8-3.27Q142,40.69,142,34.76a13.1,13.1,0,0,1,3.18-9.13A10.2,10.2,0,0,1,153,22.1a9,9,0,0,1,7.29,3q2.56,3,2.57,8.46ZM159,32.37a7.81,7.81,0,0,0-1.61-5.18A5.44,5.44,0,0,0,153,25.34a6.18,6.18,0,0,0-4.62,1.94A8.76,8.76,0,0,0,146,32.37Z" transform="translate(2.77 2.67)"/><path d="M167.25,45.8V41.67A11.38,11.38,0,0,0,174.17,44q5.06,0,5.06-3.37A2.91,2.91,0,0,0,178.8,39a4.3,4.3,0,0,0-1.18-1.19,9,9,0,0,0-1.73-.92L173.75,36a27.21,27.21,0,0,1-2.81-1.27,8.54,8.54,0,0,1-2-1.46,5.33,5.33,0,0,1-1.22-1.84A6.54,6.54,0,0,1,167.3,29a5.79,5.79,0,0,1,.77-3,6.94,6.94,0,0,1,2.07-2.18,9.6,9.6,0,0,1,2.94-1.32,12.92,12.92,0,0,1,3.41-.45,13.75,13.75,0,0,1,5.58,1.08v3.89a10.86,10.86,0,0,0-6.1-1.73,7.2,7.2,0,0,0-1.94.24,5,5,0,0,0-1.49.69,3.14,3.14,0,0,0-1,1.07,2.76,2.76,0,0,0-.34,1.37,3.23,3.23,0,0,0,.34,1.57,3.5,3.5,0,0,0,1,1.13,8.21,8.21,0,0,0,1.6.89c.62.26,1.33.55,2.13.86a30.38,30.38,0,0,1,2.86,1.26,10,10,0,0,1,2.16,1.45,5.75,5.75,0,0,1,1.37,1.86,6,6,0,0,1,.48,2.51,5.88,5.88,0,0,1-.79,3.1,6.72,6.72,0,0,1-2.1,2.18,9.69,9.69,0,0,1-3,1.28,14.45,14.45,0,0,1-3.58.43A13.71,13.71,0,0,1,167.25,45.8Z" transform="translate(2.77 2.67)"/><path d="M193,43.2h-.09V57.7h-3.85v-35h3.85v4.22H193a9.11,9.11,0,0,1,8.3-4.78,8.81,8.81,0,0,1,7.24,3.22,13.38,13.38,0,0,1,2.6,8.64q0,6-2.93,9.65a9.75,9.75,0,0,1-8,3.62A8.05,8.05,0,0,1,193,43.2Zm-.09-9.68v3.35a7.13,7.13,0,0,0,1.93,5.05,6.9,6.9,0,0,0,10.38-.6q2-2.67,2-7.43a9.65,9.65,0,0,0-1.85-6.28,6.09,6.09,0,0,0-5-2.27A6.78,6.78,0,0,0,195,27.67,8.55,8.55,0,0,0,192.92,33.52Z" transform="translate(2.77 2.67)"/><path d="M233.84,46.66H230V42.91h-.1a8,8,0,0,1-7.38,4.32,7.91,7.91,0,0,1-5.61-1.9,6.56,6.56,0,0,1-2-5c0-4.49,2.64-7.09,7.92-7.83l7.2-1q0-6.1-4.95-6.11a11.81,11.81,0,0,0-7.83,2.95V24.35a14.88,14.88,0,0,1,8.16-2.25q8.46,0,8.46,9ZM230,34.52l-5.79.8a9.41,9.41,0,0,0-4,1.32A3.83,3.83,0,0,0,218.82,40a3.64,3.64,0,0,0,1.25,2.87A4.86,4.86,0,0,0,223.41,44a6.17,6.17,0,0,0,4.72-2A7.19,7.19,0,0,0,230,36.91Z" transform="translate(2.77 2.67)"/><path d="M257.44,45.56a12.47,12.47,0,0,1-6.56,1.67,10.9,10.9,0,0,1-8.29-3.34,12.13,12.13,0,0,1-3.15-8.66,13.29,13.29,0,0,1,3.4-9.53,11.88,11.88,0,0,1,9.07-3.6,12.65,12.65,0,0,1,5.58,1.17v3.94a9.77,9.77,0,0,0-5.72-1.87,7.73,7.73,0,0,0-6,2.63,10,10,0,0,0-2.35,6.93,9.53,9.53,0,0,0,2.21,6.65A7.63,7.63,0,0,0,251.53,44a9.62,9.62,0,0,0,5.91-2.08Z" transform="translate(2.77 2.67)"/><path d="M282.54,35.63H265.6a9,9,0,0,0,2.15,6.18A7.43,7.43,0,0,0,273.43,44a11.8,11.8,0,0,0,7.45-2.67v3.61a14,14,0,0,1-8.37,2.3,10.14,10.14,0,0,1-8-3.27q-2.91-3.27-2.91-9.2a13.1,13.1,0,0,1,3.18-9.13,10.19,10.19,0,0,1,7.89-3.53,9,9,0,0,1,7.28,3q2.58,3,2.58,8.46Zm-3.94-3.26a7.8,7.8,0,0,0-1.6-5.18,5.46,5.46,0,0,0-4.4-1.85A6.17,6.17,0,0,0,268,27.28a8.83,8.83,0,0,0-2.35,5.09Z" transform="translate(2.77 2.67)"/><path d="M289.69,47.18a2.51,2.51,0,0,1-1.84-.77,2.66,2.66,0,0,1,0-3.72,2.48,2.48,0,0,1,1.84-.78,2.55,2.55,0,0,1,1.88.78,2.63,2.63,0,0,1-1.88,4.49Z" transform="translate(2.77 2.67)"/><path d="M300.73,16.57a2.44,2.44,0,0,1-1.76-.7,2.4,2.4,0,0,1-.72-1.78,2.44,2.44,0,0,1,2.48-2.51,2.5,2.5,0,0,1,1.79.71,2.38,2.38,0,0,1,.74,1.8,2.34,2.34,0,0,1-.74,1.75A2.44,2.44,0,0,1,300.73,16.57Zm1.87,30.09h-3.84v-24h3.84Z" transform="translate(2.77 2.67)"/><path d="M320.42,47.23a11.12,11.12,0,0,1-8.5-3.37A12.42,12.42,0,0,1,308.75,35c0-4,1.1-7.18,3.3-9.45A11.86,11.86,0,0,1,321,22.1q5.37,0,8.38,3.31t3,9.16a12.88,12.88,0,0,1-3.25,9.2A11.37,11.37,0,0,1,320.42,47.23Zm.28-21.89a7.31,7.31,0,0,0-5.86,2.52,10.32,10.32,0,0,0-2.16,6.94,9.8,9.8,0,0,0,2.18,6.73A7.42,7.42,0,0,0,320.7,44a7,7,0,0,0,5.73-2.41c1.34-1.61,2-3.9,2-6.87s-.66-5.31-2-6.94A7,7,0,0,0,320.7,25.34Z" transform="translate(2.77 2.67)"/></g></g></svg>